<svg xmlns="http://www.w3.org/2000/svg" viewBox="0 0 397.39 72.03"><defs><style>.cls-1{fill:#fff;}</style></defs><g id="Capa_2" data-name="Capa 2"><g id="LOGO"><path class="cls-1" d="M384,31.38c-.82-.08-1,.48-1.17,1.12C381.15,39,379.23,45.8,374.85,51A24.34,24.34,0,0,1,367,57.37c-2.77,1.32-6.78,2.29-9.77,1.11-2.37-.93-3.39-3.74-3.13-6.11.33-4.4,5.41-25.56,5.41-28C358.81,23,352.67,13,338.12,13,317.29,13,308,32.37,308,46.52v.94c-3.61,5.74-7.75,9.48-10.42,9.48s-3.74-2-2.94-5.61l6.15-30H309L310.51,14H302.2l2-9.48H286.05s-1.34,6.67-2,9.48H277.9l-1.46,7.34h6.14l-7.21,35c-1.74,8.68,4.4,14.95,13.48,14.95,8.81,0,15.22-4.8,20.56-12.81,2.94,9.61,9.48,13,16.16,12.81,6.4,0,11.21-3.46,14.68-8.53.56,2.86,3.14,5.56,5.81,6.93a15.76,15.76,0,0,0,4.5,1.38,20.33,20.33,0,0,0,6.74.11,26.24,26.24,0,0,0,6.17-2,30.72,30.72,0,0,0,10.88-8.29,42.75,42.75,0,0,0,7.95-14.75,57,57,0,0,0,1.94-8.19,33.09,33.09,0,0,0,.42-5.08C384.66,31.83,384.48,31.43,384,31.38ZM329.84,56.94c-2.94,0-5.07-3.61-5.07-10.42,0-6.41,3.6-22.69,12.68-22.69,2.54,0,4.27,1.06,4.81,1.86C342.26,25.69,338.92,56.94,329.84,56.94Z"/><path class="cls-1" d="M392.57,37.81A22.73,22.73,0,0,0,385,51.12a.33.33,0,0,0,.54.31,22.8,22.8,0,0,0,7.59-13.33A.32.32,0,0,0,392.57,37.81Z"/><path class="cls-1" d="M372.38,47.76A22.69,22.69,0,0,0,375,32.66a.32.32,0,0,0-.59-.1,22.77,22.77,0,0,0-2.66,15.09A.33.33,0,0,0,372.38,47.76Z"/><path class="cls-1" d="M389.15,53.19a17.22,17.22,0,0,0,8.22-8.28.24.24,0,0,0-.32-.32,17.3,17.3,0,0,0-8.24,8.27A.25.25,0,0,0,389.15,53.19Z"/><path class="cls-1" d="M368.37,46.43a17.19,17.19,0,0,0-1.23-11.6.24.24,0,0,0-.45,0,17.34,17.34,0,0,0,1.21,11.61A.26.26,0,0,0,368.37,46.43Z"/><path class="cls-1" d="M161.79,13.82H137.62c0,15.09-11.34,43.12-18,43.12-2.8,0-3.6-1.6-3.6-4.54a36.07,36.07,0,0,1,.71-4.78l5.22-25.41H103.77L98.41,48.34c-.73,1-1.71,2.37-3,3.93-2.54,2.94-5.07,4.67-6.94,4.67-2.8,0-3.6-1.73-3.6-5.34,0-3.34,4.53-18.56,4.53-23.49,0-10.95-7.34-16.42-16.42-16.42a19.94,19.94,0,0,0-14.28,6.4,16.17,16.17,0,0,0-13-6.4,19.62,19.62,0,0,0-14.15,6.4,15.93,15.93,0,0,0-12.82-6.4C5.74,11.69.93,23.3,0,26.5l5.61,4.28c.4-.94,3.33-7,7.34-7,3.2,0,4.67,2.54,4,6.14L8.14,70H26.3l8-37.78c.8-3.6,2.14-7.07,6.27-7.07,2.41,0,4.14,1.87,3.61,4.8L35.38,70H53.53c1.6-7.61,8.15-38.18,8.15-38.18.53-3.07,1.87-6.67,5.87-6.67,2.14,0,3.87,1.73,3.87,4.4,0,3.07-5.61,23.23-5.34,27.77,0,8.15,4.41,13.89,13.75,13.89,7.27,0,12.89-3.29,17.74-9A11.05,11.05,0,0,0,102,69.12a13.37,13.37,0,0,0,6.23,2,23.39,23.39,0,0,0,9.49-.79c8-2.46,13.55-10.28,17.51-17.26a111.64,111.64,0,0,0,9.63-23.31c.28-.92.54-1.84.79-2.76,1.21,10.14,5.48,15.88,6.14,21.76,0,5.47-3.2,8.27-6.67,8.27-3.74,0-5.74-.8-6.94-2l-7.08,10.82c.67,1.33,6.28,6.14,14,6.14,14.42-.14,23.76-8.68,23.76-22.16,0-7.48-7.21-17-7.21-31C161.65,16.09,161.79,14.36,161.79,13.82Z"/><path class="cls-1" d="M125.55,7.16a6.83,6.83,0,0,0-3.21-5.3,10.52,10.52,0,0,0-7-1.83,10.31,10.31,0,0,0-6.61,2.74,6.9,6.9,0,0,0-2.41,5.68,6.76,6.76,0,0,0,3.14,5.26,10.51,10.51,0,0,0,6.92,1.79,10.72,10.72,0,0,0,6.67-2.7A6.76,6.76,0,0,0,125.55,7.16Z"/><path class="cls-1" d="M253,12.78c-19.77,0-30.29,20.88-30.14,32.63,0,.65,0,.65,0,2-4.33,4.34-9.44,8.2-15.29,10.2a20.32,20.32,0,0,1-7.88,1.12c-2.51-.18-5.41-.85-7.25-2.69-3-3-2.38-9.46-2.19-10.53.14-1.25.32-2.56.58-3.94,1.83-9.66,6.72-17.48,10.93-17.48,3.09,0,4.65,3.59,3.2,10.18h14.75c1-4.4,2-10.69-3.89-16.6a18.35,18.35,0,0,0-4.7-3.16,20.42,20.42,0,0,0-8.27-1.72c-13.56,0-26.46,12.27-29.49,27.78a30,30,0,0,0-.88,8.2c.12,3.28.37,10.75,5.73,16.34s12.94,6,16.61,6.18a31.5,31.5,0,0,0,16.68-4.18,36,36,0,0,0,12.63-11.41c2.89,10.31,10.36,15.61,20.08,15.6,18.16,0,30-17.4,30-33.3S265.82,12.63,253,12.78Zm-7.82,45.95c-2.94,0-5.08-3.46-5.09-10,0-12.28,6.11-24.85,11.72-24.85,3.6,0,5.21,3.06,5.22,9.07C257.05,44.83,251.45,58.73,245.18,58.73Z"/></g></g></svg>